<?xml version="1.0" standalone="no"?>
<!DOCTYPE svg PUBLIC "-//W3C//DTD SVG 20010904//EN"
 "http://www.w3.org/TR/2001/REC-SVG-20010904/DTD/svg10.dtd">
<svg version="1.0" xmlns="http://www.w3.org/2000/svg"
 width="320.000000pt" height="320.000000pt" viewBox="0 0 320.000000 320.000000"
 preserveAspectRatio="xMidYMid meet">

<g transform="translate(0.000000,320.000000) scale(0.100000,-0.100000)"
fill="#000000" stroke="none">
<path d="M1415 2700 c-3 -5 -2 -10 3 -10 15 0 32 -49 32 -93 0 -69 9 -73 78
-42 69 31 128 85 118 110 -10 27 -71 45 -150 45 -41 0 -78 -4 -81 -10z"/>
<path d="M1176 2678 c-11 -6 -36 -12 -55 -14 -77 -6 -184 -68 -305 -179 -196
-179 -255 -291 -263 -501 l-5 -121 30 -12 c17 -7 53 -36 79 -65 91 -99 153
-175 153 -187 0 -6 9 -27 21 -45 24 -39 18 -69 -26 -136 -14 -21 -25 -47 -25
-58 0 -26 25 -76 57 -114 13 -16 20 -32 16 -36 -13 -12 -154 -67 -216 -84
-325 -93 -526 -12 -568 228 -36 207 102 514 336 749 44 44 71 75 60 69 -48
-26 -220 -223 -290 -332 -93 -145 -137 -255 -161 -405 -15 -91 -15 -107 -1
-182 38 -198 148 -318 337 -364 73 -18 266 -15 353 6 82 19 195 59 261 92 38
20 50 22 57 12 8 -14 20 -82 38 -227 13 -99 31 -142 70 -165 32 -19 76 -23 66
-6 -4 6 -4 30 0 55 6 41 13 50 120 139 190 159 279 274 330 422 26 76 32 67
-58 95 -47 16 -48 15 -56 -6 -5 -11 -23 -64 -41 -116 -48 -143 -81 -168 -100
-78 -6 29 -19 93 -29 141 -14 74 -21 90 -42 100 -13 7 -24 19 -24 27 0 8 -9
16 -20 18 -53 10 -258 61 -263 67 -16 15 32 39 88 43 33 2 60 7 59 11 0 3 -29
31 -65 61 -88 75 -166 96 -240 65 l-35 -15 -26 58 c-28 62 -59 102 -80 102
-16 0 -16 1 2 36 8 16 15 37 15 47 0 16 -2 16 -29 -4 -44 -32 -65 -23 -69 31
-4 58 18 119 50 143 29 22 86 34 136 29 33 -3 34 -4 30 -45 -4 -60 11 -57 37
8 44 107 145 197 288 255 38 16 54 27 47 34 -15 15 -12 53 6 60 30 11 53 6 80
-19 30 -28 44 -25 44 11 0 50 -50 123 -103 151 -28 14 -30 14 -92 -46 -35 -34
-68 -61 -74 -61 -6 0 -11 11 -11 24 0 14 -4 28 -10 31 -5 3 -10 21 -10 38 0
30 4 33 63 53 34 12 88 31 121 43 63 24 79 22 53 -7 -10 -10 -17 -26 -17 -35
0 -24 42 -22 64 2 17 19 17 23 1 70 -20 62 -40 66 -108 20 -26 -17 -54 -29
-64 -26 -14 3 -10 8 15 18 17 7 32 19 32 26 0 16 -9 16 -34 1z"/>
<path d="M1934 2654 c11 -44 38 -73 94 -100 l53 -27 -3 -81 c-3 -76 -2 -82 20
-91 12 -5 22 -13 22 -17 0 -12 -43 -38 -63 -38 -14 0 -17 -5 -11 -22 23 -74
41 -93 79 -84 26 7 29 12 60 99 24 67 47 76 113 43 28 -14 70 -29 94 -32 43
-7 91 -45 130 -104 9 -14 17 -20 17 -13 1 21 -122 178 -198 251 -114 111 -325
242 -390 242 -20 0 -22 -3 -17 -26z"/>
<path d="M1914 2460 c-1 -29 3 -40 13 -40 10 0 13 10 11 37 -4 50 -23 53 -24
3z"/>
<path d="M1970 2437 c0 -19 21 -37 42 -37 25 0 23 16 -4 34 -27 19 -38 20 -38
3z"/>
<path d="M2911 2361 c-9 -15 -7 -20 11 -25 24 -6 62 20 52 35 -10 16 -53 9
-63 -10z"/>
<path d="M2985 2234 c-104 -63 -275 -167 -380 -231 -217 -132 -414 -252 -730
-443 -121 -73 -224 -138 -230 -143 -15 -13 51 2 104 25 73 31 519 306 606 373
116 90 184 132 234 145 52 14 545 309 579 346 22 25 29 44 15 44 -5 0 -93 -52
-198 -116z"/>
<path d="M2875 2310 c-16 -18 -16 -20 -1 -26 16 -6 56 20 56 38 0 16 -37 8
-55 -12z"/>
<path d="M2202 2180 c-151 -74 -145 -78 107 -59 79 5 151 14 160 19 11 6 1 8
-29 4 -40 -5 -50 -3 -77 20 -18 15 -35 36 -38 46 -4 11 -9 20 -13 20 -4 0 -53
-23 -110 -50z"/>
<path d="M2740 2190 c0 -11 6 -20 13 -20 19 0 27 10 20 26 -8 21 -33 17 -33
-6z"/>
<path d="M2676 2162 c-2 -4 -1 -14 4 -21 11 -19 41 -6 34 14 -6 16 -29 20 -38
7z"/>
<path d="M2614 2114 c3 -9 6 -18 6 -20 0 -2 7 -4 15 -4 8 0 15 9 15 20 0 14
-7 20 -21 20 -15 0 -19 -4 -15 -16z"/>
<path d="M2556 2091 c-9 -14 5 -42 18 -38 15 5 14 39 -1 44 -6 2 -14 0 -17 -6z"/>
<path d="M2495 2051 c-8 -15 3 -31 21 -31 9 0 14 7 12 17 -4 20 -24 28 -33 14z"/>
<path d="M2430 2000 c0 -11 6 -20 13 -20 19 0 27 10 20 26 -8 21 -33 17 -33
-6z"/>
<path d="M2370 1966 c0 -18 16 -29 30 -21 13 8 1 35 -16 35 -8 0 -14 -6 -14
-14z"/>
<path d="M1590 1960 c0 -6 7 -10 15 -10 8 0 15 2 15 4 0 2 -7 6 -15 10 -8 3
-15 1 -15 -4z"/>
<path d="M2312 1941 c-16 -10 -5 -41 14 -41 15 0 20 35 6 44 -4 2 -14 1 -20
-3z"/>
<path d="M2572 1707 c-35 -161 -52 -265 -52 -312 0 -109 -32 -284 -86 -472
-10 -37 20 -28 56 15 38 46 120 206 148 287 57 170 76 383 48 551 -21 122 -36
174 -50 174 -6 0 -34 -106 -64 -243z"/>
<path d="M862 1873 c21 -20 40 -34 43 -31 8 8 -50 68 -66 68 -8 0 3 -17 23
-37z"/>
<path d="M2245 1900 c-10 -16 16 -43 28 -31 11 11 2 41 -12 41 -5 0 -13 -5
-16 -10z"/>
<path d="M2185 1861 c-8 -15 3 -31 21 -31 9 0 14 7 12 17 -4 20 -24 28 -33 14z"/>
<path d="M965 1821 c-7 -12 12 -24 25 -16 11 7 4 25 -10 25 -5 0 -11 -4 -15
-9z"/>
<path d="M2122 1813 c4 -21 33 -25 33 -3 0 8 -8 16 -18 18 -14 3 -18 -1 -15
-15z"/>
<path d="M2062 1773 c4 -21 33 -25 33 -3 0 8 -8 16 -18 18 -14 3 -18 -1 -15
-15z"/>
<path d="M2004 1745 c-9 -23 10 -40 25 -22 9 11 8 17 -4 27 -12 10 -16 9 -21
-5z"/>
<path d="M1028 1709 c-51 -26 -49 -43 2 -34 38 6 47 2 175 -81 75 -48 138 -91
141 -95 3 -5 -7 -27 -22 -49 -15 -22 -24 -43 -21 -46 3 -4 63 33 132 82 l126
87 -26 25 c-19 17 -79 39 -217 78 -105 30 -205 54 -222 54 -17 -1 -48 -10 -68
-21z"/>
<path d="M1935 1711 c-8 -15 3 -31 21 -31 9 0 14 7 12 17 -4 20 -24 28 -33 14z"/>
<path d="M1875 1671 c-8 -15 3 -31 21 -31 9 0 14 7 12 17 -4 20 -24 28 -33 14z"/>
<path d="M2158 1648 c-21 -12 -38 -26 -38 -31 0 -5 17 -25 38 -44 32 -30 42
-34 76 -30 21 3 42 9 47 14 4 4 -13 32 -39 61 l-47 52 -37 -22z"/>
<path d="M1812 1624 c2 -11 11 -20 22 -22 13 -3 17 1 14 14 -2 11 -11 20 -22
22 -13 3 -17 -1 -14 -14z"/>
</g>
</svg>
